#!OML:ASF E:\Style4\Style4.ASF
:FULLY-SPECIFIED
:DEGREES
2658
root 0.107194 17.5163 -0.775438 0.311349 -0.195331 2.7545
lowerback 5.26354 2.40548 -0.630908
upperback 1.53088 3.16995 0.0549051
thorax -1.41024 1.58306 0.20653
lowerneck -2.54204 -4.78394 -6.21072
upperneck 8.81547 -6.30956 2.93443
head 3.65885 -3.22105 1.80369
rclavicle -5.86415e-015 5.96354e-015
rhumerus -59.5707 11.431 -91.7979
rradius 109.725
rwrist 14.7944
rhand -38.7629 40.2579
rfingers 7.12502
rthumb -11.775 10.6088
lclavicle -5.86415e-015 5.96354e-015
lhumerus -60.2182 -23.2115 96.4419
lradius 105.821
lwrist -12.243
lhand -27.9284 20.6585
lfingers 7.12502
lthumb -1.31673 50.6342
rfemur -14.2335 2.11191 15.1739
rtibia 38.3378
rfoot -23.0131 -12.1227
rtoes -12.1279
lfemur -12.5994 -2.37468 -22.107
ltibia 35.5862
lfoot -23.1888 7.67784
ltoes -14.41
2659
root 0.106146 17.5158 -0.771598 0.276318 -0.161295 2.72595
lowerback 5.22359 2.39028 -0.607781
upperback 1.55385 3.15139 0.0599576
thorax -1.36327 1.5737 0.202501
lowerneck -2.49607 -4.77657 -6.17373
upperneck 8.80402 -6.30128 2.8992
head 3.6421 -3.21727 1.78661
rclavicle 0 -5.56597e-015
rhumerus -59.6607 11.6014 -92.1641
rradius 109.401
rwrist 15.0269
rhand -38.9341 40.2495
rfingers 7.12502
rthumb -11.9401 10.61
lclavicle 0 -5.56597e-015
lhumerus -60.2782 -23.1153 96.6644
lradius 105.707
lwrist -12.1022
lhand -27.9503 20.275
lfingers 7.12502
lthumb -1.33794 50.2506
rfemur -14.1456 2.08804 15.2054
rtibia 38.2963
rfoot -23.0499 -12.1004
rtoes -12.0661
lfemur -12.5534 -2.35058 -22.0713
ltibia 35.6169
lfoot -23.2449 7.6993
ltoes -14.8166
2660
root 0.103758 17.5154 -0.771241 0.259277 -0.150125 2.61396
lowerback 5.2026 2.38005 -0.507673
upperback 1.56917 3.1435 0.0823816
thorax -1.33168 1.56962 0.171578
lowerneck -2.48998 -4.77791 -6.14039
upperneck 8.80874 -6.30412 2.88442
head 3.64045 -3.21818 1.77563
rclavicle 6.41081e-015 -1.74931e-014
rhumerus -59.6269 11.772 -92.5183
rradius 109.152
rwrist 15.2708
rhand -39.0524 40.0984
rfingers 7.12502
rthumb -12.0542 10.4656
lclavicle 6.41081e-015 -1.74931e-014
lhumerus -60.2177 -23.004 96.8113
lradius 105.556
lwrist -12.1649
lhand -27.93 20.211
lfingers 7.12502
lthumb -1.31827 50.1867
rfemur -14.1146 2.09607 15.348
rtibia 38.2625
rfoot -22.9747 -12.2276
rtoes -12.3703
lfemur -12.564 -2.33072 -21.9298
ltibia 35.6633
lfoot -23.2434 7.5326
ltoes -14.2462
2661
root 0.101682 17.5134 -0.7719 0.20994 -0.127103 2.55819
lowerback 5.24235 2.37121 -0.435119
upperback 1.58108 3.1351 0.073594
thorax -1.33716 1.56536 0.121231
lowerneck -2.48743 -4.786 -6.07754
upperneck 8.82549 -6.31568 2.8471
head 3.64173 -3.22331 1.75124
rclavicle 8.24956e-015 7.15625e-015
rhumerus -59.585 11.9232 -92.8436
rradius 109.144
rwrist 15.347
rhand -38.9098 39.8404
rfingers 7.12502
rthumb -11.9167 10.1996
lclavicle 8.24956e-015 7.15625e-015
lhumerus -60.131 -22.9547 96.9357
lradius 105.37
lwrist -12.2209
lhand -27.9348 20.1013
lfingers 7.12502
lthumb -1.32296 50.077
rfemur -14.0512 2.10966 15.4247
rtibia 38.2409
rfoot -22.9534 -12.2998
rtoes -12.7161
lfemur -12.5485 -2.34915 -21.8608
ltibia 35.7148
lfoot -23.2596 7.43186
ltoes -13.7741
2662
root 0.100255 17.5117 -0.773528 0.194382 -0.0933996 2.53015
lowerback 5.23834 2.36669 -0.382544
upperback 1.59479 3.13151 0.0520769
thorax -1.31681 1.56353 0.0707302
lowerneck -2.44888 -4.8083 -6.01635
upperneck 8.78038 -6.34707 2.80526
head 3.61525 -3.23827 1.7258
rclavicle -3.13086e-015 1.63003e-014
rhumerus -59.4885 12.1725 -93.1197
rradius 109.122
rwrist 15.2638
rhand -38.7053 39.7314
rfingers 7.12502
rthumb -11.7195 10.0792
lclavicle -3.13086e-015 1.63003e-014
lhumerus -60.0241 -23.0317 97.0549
lradius 105.17
lwrist -12.2321
lhand -28.084 20.189
lfingers 7.12502
lthumb -1.46703 50.1637
rfemur -14.0229 2.10525 15.4609
rtibia 38.2256
rfoot -22.9934 -12.238
rtoes -12.5951
lfemur -12.5688 -2.35362 -21.8254
ltibia 35.7637
lfoot -23.2932 7.45348
ltoes -13.9785
2663
root 0.0988525 17.5113 -0.776214 0.168292 -0.0817108 2.50263
lowerback 5.2681 2.35898 -0.355833
upperback 1.60675 3.12258 0.0585315
thorax -1.32 1.55904 0.0620016
lowerneck -2.41415 -4.81457 -6.01834
upperneck 8.7304 -6.35529 2.78878
head 3.59079 -3.24289 1.72124
rclavicle 4.91992e-015 3.18055e-015
rhumerus -59.3842 12.4468 -93.3615
rradius 108.995
rwrist 15.2117
rhand -38.5883 39.677
rfingers 7.12502
rthumb -11.6067 10.0184
lclavicle 4.91992e-015 3.18055e-015
lhumerus -59.9215 -23.1053 97.1865
lradius 104.969
lwrist -12.2961
lhand -28.3177 20.4609
lfingers 7.12502
lthumb -1.69274 50.434
rfemur -13.9972 2.11717 15.5019
rtibia 38.2116
rfoot -22.9938 -12.253
rtoes -12.6312
lfemur -12.573 -2.36422 -21.7882
ltibia 35.7959
lfoot -23.2173 7.43293
ltoes -13.7854
2664
root 0.0969208 17.5101 -0.778569 0.150244 -0.0804596 2.53071
lowerback 5.30207 2.35533 -0.399509
upperback 1.59425 3.11513 0.0510729
thorax -1.35363 1.55535 0.0772861
lowerneck -2.37456 -4.81253 -6.01552
upperneck 8.71199 -6.35475 2.78809
head 3.57653 -3.24274 1.72148
rclavicle -4.89507e-014 1.51076e-014
rhumerus -59.2849 12.6629 -93.5939
rradius 108.786
rwrist 15.2947
rhand -38.6353 39.8091
rfingers 7.12502
rthumb -11.652 10.1531
lclavicle -4.89507e-014 1.51076e-014
lhumerus -59.8744 -23.15 97.3043
lradius 104.867
lwrist -12.302
lhand -28.5086 20.6341
lfingers 7.12502
lthumb -1.87711 50.6056
rfemur -14.032 2.16845 15.472
rtibia 38.224
rfoot -23.1226 -12.2457
rtoes -12.1849
lfemur -12.5784 -2.33466 -21.8078
ltibia 35.8131
lfoot -23.1747 7.45974
ltoes -14.06
2665
root 0.0941706 17.5088 -0.78223 0.149515 -0.0610229 2.53061
lowerback 5.33045 2.32434 -0.455591
upperback 1.56923 3.07113 0.0749943
thorax -1.39915 1.53345 0.133891
lowerneck -2.32922 -4.78186 -6.0313
upperneck 8.69896 -6.31251 2.75672
head 3.56035 -3.22374 1.71679
rclavicle -1.74931e-014 -3.97569e-015
rhumerus -59.1381 12.962 -93.7723
rradius 108.559
rwrist 15.3287
rhand -38.565 39.8423
rfingers 7.12502
rthumb -11.5842 10.1825
lclavicle -1.74931e-014 -3.97569e-015
lhumerus -59.8569 -23.1773 97.4304
lradius 104.836
lwrist -12.2308
lhand -28.5546 20.5319
lfingers 7.12502
lthumb -1.92157 50.5029
rfemur -14.1058 2.18985 15.474
rtibia 38.2621
rfoot -23.2 -12.282
rtoes -11.9167
lfemur -12.6046 -2.33295 -21.79
ltibia 35.8322
lfoot -23.2608 7.46924
ltoes -14.2785
2666
root 0.0917397 17.5081 -0.78498 0.142805 -0.0577476 2.58735
lowerback 5.34278 2.30366 -0.552162
upperback 1.55208 3.03823 0.0654319
thorax -1.42788 1.51718 0.179057
lowerneck -2.26644 -4.75638 -6.00178
upperneck 8.66045 -6.27979 2.71758
head 3.52993 -3.20815 1.70147
rclavicle -8.15017e-015 1.47101e-014
rhumerus -58.9598 13.2396 -93.9422
rradius 108.351
rwrist 15.2776
rhand -38.3764 39.9239
rfingers 7.12502
rthumb -11.4023 10.254
lclavicle -8.15017e-015 1.47101e-014
lhumerus -59.7658 -23.2242 97.4716
lradius 104.809
lwrist -12.4146
lhand -28.3284 20.8172
lfingers 7.12502
lthumb -1.70312 50.7901
rfemur -14.1112 2.15651 15.4228
rtibia 38.3254
rfoot -23.0946 -12.2823
rtoes -12.2563
lfemur -12.6074 -2.33833 -21.8457
ltibia 35.8472
lfoot -23.2825 7.50294
ltoes -14.5742
2667
root 0.0906194 17.5058 -0.787847 0.126464 -0.072755 2.61735
lowerback 5.36553 2.31204 -0.580534
upperback 1.52961 3.04729 0.0433228
thorax -1.46397 1.52181 0.170026
lowerneck -2.26988 -4.76201 -6.02727
upperneck 8.72942 -6.29007 2.75691
head 3.55827 -3.21322 1.71826
rclavicle -9.93923e-015 -4.37326e-015
rhumerus -58.8333 13.4195 -94.084
rradius 108.171
rwrist 15.4102
rhand -38.3572 39.8003
rfingers 7.12502
rthumb -11.3838 10.1293
lclavicle -9.93923e-015 -4.37326e-015
lhumerus -59.5996 -23.3503 97.4283
lradius 104.754
lwrist -13.0732
lhand -28.012 21.056
lfingers 7.12502
lthumb -1.39747 51.0312
rfemur -14.1009 2.10553 15.3994
rtibia 38.4006
rfoot -23.0114 -12.2504
rtoes -12.5245
lfemur -12.6028 -2.33363 -21.8752
ltibia 35.8494
lfoot -23.3027 7.52591
ltoes -14.5522
2668
root 0.089921 17.5044 -0.789539 0.119898 -0.0796839 2.64602
lowerback 5.35956 2.31534 -0.601976
upperback 1.53152 3.05033 0.0291998
thorax -1.45906 1.52336 0.167635
lowerneck -2.35111 -4.76928 -6.08848
upperneck 8.81389 -6.29684 2.80382
head 3.6089 -3.21698 1.74244
rclavicle 5.725e-014 -3.18055e-015
rhumerus -58.6398 13.671 -94.1631
rradius 108.006
rwrist 15.5632
rhand -38.4141 39.5393
rfingers 7.12502
rthumb -11.4386 9.87129
lclavicle 5.725e-014 -3.18055e-015
lhumerus -59.4526 -23.5842 97.5242
lradius 104.62
lwrist -13.1346
lhand -27.9679 19.4835
lfingers 7.12502
lthumb -1.35487 49.4589
rfemur -14.1241 2.08544 15.3669
rtibia 38.4726
rfoot -23.0632 -12.1952
rtoes -12.3241
lfemur -12.5942 -2.33286 -21.9055
ltibia 35.8389
lfoot -23.3068 7.52794
ltoes -14.4603
2669
root 0.0884774 17.5059 -0.790545 0.0955547 -0.0997616 2.70199
lowerback 5.37476 2.32104 -0.668504
upperback 1.53742 3.05392 0.0113443
thorax -1.46397 1.52524 0.185679
lowerneck -2.43372 -4.78611 -6.10279
upperneck 8.88694 -6.31502 2.80727
head 3.65227 -3.22628 1.74314
rclavicle -6.31141e-015 -4.77083e-015
rhumerus -58.4282 13.9167 -94.2304
rradius 107.834
rwrist 15.7121
rhand -38.4052 39.5585
rfingers 7.12502
rthumb -11.4301 9.89007
lclavicle -6.31141e-015 -4.77083e-015
lhumerus -59.294 -23.7623 97.5493
lradius 104.563
lwrist -13.2163
lhand -27.9406 18.8138
lfingers 7.12502
lthumb -1.32853 48.7894
rfemur -14.1252 2.07839 15.3107
rtibia 38.5247
rfoot -23.1222 -12.1824
rtoes -12.4061
lfemur -12.556 -2.30214 -21.9664
ltibia 35.8138
lfoot -23.262 7.60217
ltoes -14.8785
2670
root 0.0869941 17.5069 -0.792849 0.0934104 -0.143314 2.70159
lowerback 5.3893 2.35088 -0.661654
upperback 1.51758 3.09377 0.00805867
thorax -1.49226 1.54519 0.174645
lowerneck -2.4646 -4.82024 -6.16621
upperneck 8.93524 -6.35812 2.83103
head 3.68165 -3.24903 1.75946
rclavicle -2.59414e-014 6.75868e-015
rhumerus -58.2595 14.0622 -94.2423
rradius 107.705
rwrist 15.8449
rhand -38.3576 39.6917
rfingers 7.12502
rthumb -11.3842 10.0207
lclavicle -2.59414e-014 6.75868e-015
lhumerus -59.2246 -23.9381 97.6029
lradius 104.49
lwrist -13.3146
lhand -28.0459 18.7695
lfingers 7.12502
lthumb -1.43021 48.7444
rfemur -14.1736 2.07877 15.3125
rtibia 38.5661
rfoot -23.1667 -12.1028
rtoes -12.428
lfemur -12.5517 -2.24722 -21.9611
ltibia 35.798
lfoot -23.2206 7.66107
ltoes -15.1074
